<?xml version="1.0" encoding="utf-8"?>
<!-- Generator: Adobe Illustrator 16.0.0, SVG Export Plug-In . SVG Version: 6.00 Build 0)  -->
<!DOCTYPE svg PUBLIC "-//W3C//DTD SVG 1.1//EN" "http://www.w3.org/Graphics/SVG/1.1/DTD/svg11.dtd">
<svg version="1.1" id="Layer_1" xmlns="http://www.w3.org/2000/svg" xmlns:xlink="http://www.w3.org/1999/xlink" x="0px" y="0px"
	 width="53px" height="62px" viewBox="0 0 53 62" enable-background="new 0 0 53 62" xml:space="preserve">
<path fill="#012639" d="M39.713,0.156H13.287c-2.34,0-4.252,1.914-4.252,4.252v25.367c0,2.339,1.912,4.252,4.252,4.252h3.791
	l3.587,3.368c0.071,0.011,2.401-1.865,4.255-3.368h14.792c2.338,0,4.252-1.913,4.252-4.252V4.408
	C43.965,2.069,42.051,0.156,39.713,0.156z"/>
<g>
	<path fill="#FFFFFF" d="M21.976,14.284h2.132v-1.962c0-1.074,0.129-1.876,0.389-2.406s0.737-0.96,1.435-1.293
		c0.695-0.333,1.577-0.499,2.643-0.499c1.092,0,1.681,0.023,2.728,0.312l-0.037,2.479c-0.61-0.128-1.196-0.192-1.762-0.192
		c-0.556,0-0.953,0.114-1.194,0.343c-0.242,0.229-0.363,0.667-0.363,1.317v1.902h2.869v3.658h-2.869v8.116h-3.837v-8.116h-2.132
		V14.284z"/>
</g>
</svg>
