<?xml version="1.0" encoding="utf-8"?>
<!-- Generator: Adobe Illustrator 16.0.0, SVG Export Plug-In . SVG Version: 6.00 Build 0)  -->
<!DOCTYPE svg PUBLIC "-//W3C//DTD SVG 1.1//EN" "http://www.w3.org/Graphics/SVG/1.1/DTD/svg11.dtd">
<svg version="1.1" id="Layer_1" xmlns="http://www.w3.org/2000/svg" xmlns:xlink="http://www.w3.org/1999/xlink" x="0px" y="0px"
	 width="53px" height="62px" viewBox="0 0 53 62" enable-background="new 0 0 53 62" xml:space="preserve">
<g>
	<path fill="#FFFFFF" d="M17.573,32.776h-4.286c-1.655,0-3.002-1.347-3.002-3.002V4.408c0-1.655,1.347-3.002,3.002-3.002h26.426
		c1.655,0,3.002,1.347,3.002,3.002v25.367c0,1.655-1.347,3.002-3.002,3.002H24.478l-0.344,0.279c-1.79,1.45-2.803,2.26-3.376,2.71
		L17.573,32.776z"/>
	<path fill="#012639" d="M39.713,2.656c0.949,0,1.752,0.802,1.752,1.752v25.367c0,0.95-0.803,1.752-1.752,1.752H24.92h-0.886
		l-0.688,0.558c-1.123,0.91-1.934,1.563-2.521,2.032l-2.036-1.912l-0.722-0.678h-0.99h-3.791c-0.966,0-1.752-0.786-1.752-1.752
		V4.408c0-0.966,0.786-1.752,1.752-1.752H39.713 M39.713,0.156H13.287c-2.34,0-4.252,1.914-4.252,4.252v25.367
		c0,2.339,1.912,4.252,4.252,4.252h3.791l3.587,3.368h0c0.084,0,2.406-1.869,4.255-3.368h14.792c2.338,0,4.252-1.913,4.252-4.252
		V4.408C43.965,2.069,42.051,0.156,39.713,0.156L39.713,0.156z"/>
</g>
<rect x="30.917" y="2.75" fill="#FFFFFF" stroke="#012639" stroke-width="2.5" stroke-miterlimit="10" width="10.333" height="9.917"/>
<rect x="10.253" y="1.728" fill="#012639" width="19.664" height="13.355"/>
<circle fill="#FFFFFF" stroke="#012639" stroke-width="2.5" stroke-miterlimit="10" cx="26.951" cy="19.572" r="8.416"/>
<rect x="17.506" y="31.504" fill="#012639" width="6.557" height="2.829"/>
</svg>
